<svg xmlns="http://www.w3.org/2000/svg" width="1000" height="390" viewBox="0 0 1000 390" data-palette="ac56e6-e76ad6-beacf6-b5565d7050b1" role="img" aria-labelledby="hero-light-title hero-light-desc"><title id="hero-light-title">mcpx</title><desc id="hero-light-desc">Write one MCP server entry across your clients.</desc><defs><linearGradient id="brand" gradientUnits="userSpaceOnUse" x2="1000" y2="390"><stop stop-color="#994ccd"/><stop offset=".6" stop-color="#a94e9d"/><stop offset="1" stop-color="#756a98"/></linearGradient><radialGradient id="halo"><stop stop-color="#994ccd" stop-opacity=".22"/><stop offset="1" stop-color="#fcf9fe" stop-opacity="0"/></radialGradient><filter id="glow"><feGaussianBlur stdDeviation="5"/></filter><pattern id="grid" width="40" height="40" patternUnits="userSpaceOnUse"><path d="M40 0H0V40" fill="none" stroke="#e6cbf7" stroke-opacity=".35" stroke-width=".6"/></pattern><marker id="arrow" viewBox="0 0 10 10" refX="8" refY="5" markerWidth="5" markerHeight="5" orient="auto"><path d="m1 1 7 4-7 4" fill="none" stroke="#994ccd" stroke-width="1.5"/></marker></defs><style>text{font-family:Arial,"Noto Sans",sans-serif}.flow{stroke-dasharray:10 110;animation:flow 6s linear infinite}.pulse{animation:pulse 5s ease-in-out infinite}.turn{transform-box:fill-box;transform-origin:center;animation:turn 36s linear infinite}@keyframes flow{to{stroke-dashoffset:-360}}@keyframes pulse{0%,100%{opacity:.45}50%{opacity:1}}@keyframes turn{to{transform:rotate(360deg)}}@media(prefers-reduced-motion:reduce){*{animation:none!important;transform:none!important}.flow{display:none}}</style><rect width="1000" height="390" rx="16" fill="#fcf9fe"/><rect width="1000" height="390" rx="16" fill="url(#grid)"/><ellipse cx="630.0" cy="167.7" rx="500.0" ry="273.0" fill="url(#halo)"/><circle cx="1037.92" cy="228.27" r="1.07" fill="#a94e9d" opacity="0.72"/><circle cx="679.65" cy="125.75" r="1.16" fill="#994ccd" opacity="0.77"/><circle cx="811.44" cy="348.83" r="1.12" fill="#994ccd" opacity="0.35"/><circle cx="667.29" cy="182.39" r="0.76" fill="#a94e9d" opacity="0.23"/><circle cx="919.88" cy="37.69" r="1.15" fill="#994ccd" opacity="0.78"/><circle cx="1044.09" cy="122.53" r="1.32" fill="#994ccd" opacity="0.73"/><circle cx="661.99" cy="192.61" r="0.79" fill="#a94e9d" opacity="0.36"/><circle cx="918.97" cy="118.47" r="1.53" fill="#994ccd" opacity="0.44"/><circle cx="658.99" cy="125.94" r="1.09" fill="#994ccd" opacity="0.47"/><circle cx="864.31" cy="58.42" r="1.24" fill="#a94e9d" opacity="0.45"/><circle cx="1020.05" cy="93.35" r="1.35" fill="#994ccd" opacity="0.54"/><circle cx="926.96" cy="400.78" r="0.99" fill="#994ccd" opacity="0.28"/><circle cx="1022.48" cy="143.31" r="1.43" fill="#a94e9d" opacity="0.55"/><circle cx="1015.29" cy="356.18" r="1.56" fill="#994ccd" opacity="0.69"/><circle cx="1007.17" cy="198.65" r="0.64" fill="#994ccd" opacity="0.78"/><circle cx="904.53" cy="68.84" r="1.47" fill="#a94e9d" opacity="0.72"/><circle cx="696.27" cy="250.00" r="0.71" fill="#994ccd" opacity="0.56"/><circle cx="925.19" cy="41.66" r="1.54" fill="#994ccd" opacity="0.30"/><circle cx="812.83" cy="44.37" r="1.09" fill="#a94e9d" opacity="0.43"/><circle cx="1015.51" cy="116.28" r="1.19" fill="#994ccd" opacity="0.26"/><circle cx="746.58" cy="71.63" r="1.11" fill="#994ccd" opacity="0.63"/><circle cx="623.54" cy="345.19" r="1.56" fill="#a94e9d" opacity="0.28"/><circle cx="729.02" cy="212.85" r="1.10" fill="#994ccd" opacity="0.22"/><circle cx="960.42" cy="211.09" r="1.13" fill="#994ccd" opacity="0.43"/><circle cx="747.90" cy="269.00" r="1.63" fill="#a94e9d" opacity="0.55"/><circle cx="671.51" cy="233.68" r="0.87" fill="#994ccd" opacity="0.75"/><circle cx="831.73" cy="276.83" r="0.97" fill="#994ccd" opacity="0.29"/><circle cx="858.75" cy="383.94" r="0.65" fill="#a94e9d" opacity="0.27"/><circle cx="634.37" cy="145.15" r="1.66" fill="#994ccd" opacity="0.54"/><circle cx="983.08" cy="321.71" r="1.04" fill="#994ccd" opacity="0.58"/><circle cx="760.25" cy="378.26" r="1.65" fill="#a94e9d" opacity="0.80"/><circle cx="855.24" cy="97.47" r="1.05" fill="#994ccd" opacity="0.58"/><circle cx="583.09" cy="265.54" r="1.67" fill="#994ccd" opacity="0.34"/><circle cx="834.49" cy="143.66" r="1.01" fill="#a94e9d" opacity="0.38"/><circle cx="839.22" cy="42.25" r="1.07" fill="#994ccd" opacity="0.29"/><circle cx="800.56" cy="391.25" r="1.37" fill="#994ccd" opacity="0.29"/><circle cx="912.07" cy="416.81" r="1.12" fill="#a94e9d" opacity="0.29"/><circle cx="1013.34" cy="350.94" r="1.66" fill="#994ccd" opacity="0.39"/><circle cx="994.32" cy="106.98" r="1.04" fill="#994ccd" opacity="0.62"/><circle cx="736.72" cy="325.54" r="1.49" fill="#a94e9d" opacity="0.31"/><circle cx="1016.11" cy="284.50" r="0.62" fill="#994ccd" opacity="0.67"/><circle cx="917.68" cy="169.44" r="1.19" fill="#994ccd" opacity="0.57"/><circle cx="732.39" cy="191.02" r="1.16" fill="#a94e9d" opacity="0.61"/><circle cx="632.89" cy="290.07" r="1.36" fill="#994ccd" opacity="0.54"/><circle cx="1052.34" cy="171.63" r="1.31" fill="#994ccd" opacity="0.56"/><circle cx="663.03" cy="110.38" r="1.52" fill="#a94e9d" opacity="0.35"/><circle cx="736.46" cy="51.81" r="0.74" fill="#994ccd" opacity="0.59"/><circle cx="785.43" cy="65.43" r="1.54" fill="#994ccd" opacity="0.26"/><circle cx="843.96" cy="81.89" r="0.74" fill="#a94e9d" opacity="0.68"/><circle cx="820.02" cy="51.55" r="1.63" fill="#994ccd" opacity="0.30"/><circle cx="1028.91" cy="97.32" r="1.35" fill="#994ccd" opacity="0.73"/><circle cx="636.88" cy="92.74" r="1.49" fill="#a94e9d" opacity="0.49"/><circle cx="846.57" cy="410.10" r="1.45" fill="#994ccd" opacity="0.67"/><circle cx="864.79" cy="432.16" r="0.97" fill="#994ccd" opacity="0.38"/><circle cx="862.53" cy="246.21" r="0.88" fill="#a94e9d" opacity="0.63"/><circle cx="723.67" cy="60.23" r="0.95" fill="#994ccd" opacity="0.76"/><circle cx="759.56" cy="66.81" r="0.76" fill="#994ccd" opacity="0.27"/><circle cx="566.93" cy="250.31" r="0.66" fill="#a94e9d" opacity="0.78"/><circle cx="815.51" cy="74.11" r="1.10" fill="#994ccd" opacity="0.27"/><circle cx="922.53" cy="278.16" r="1.32" fill="#994ccd" opacity="0.74"/><circle cx="764.87" cy="143.56" r="1.40" fill="#a94e9d" opacity="0.57"/><circle cx="1075.05" cy="189.28" r="1.52" fill="#994ccd" opacity="0.48"/><circle cx="1056.47" cy="140.71" r="1.21" fill="#994ccd" opacity="0.66"/><circle cx="585.13" cy="266.96" r="0.64" fill="#a94e9d" opacity="0.56"/><circle cx="769.06" cy="421.18" r="0.77" fill="#994ccd" opacity="0.60"/><circle cx="741.33" cy="39.51" r="0.86" fill="#994ccd" opacity="0.37"/><circle cx="959.62" cy="120.92" r="0.87" fill="#a94e9d" opacity="0.80"/><circle cx="663.96" cy="93.34" r="0.64" fill="#994ccd" opacity="0.52"/><circle cx="737.59" cy="422.21" r="0.96" fill="#994ccd" opacity="0.50"/><circle cx="936.60" cy="407.18" r="0.63" fill="#a94e9d" opacity="0.59"/><circle cx="1050.38" cy="190.39" r="1.53" fill="#994ccd" opacity="0.58"/><circle cx="965.87" cy="398.94" r="0.65" fill="#994ccd" opacity="0.45"/><circle cx="997.34" cy="364.44" r="0.68" fill="#a94e9d" opacity="0.23"/><circle cx="986.68" cy="188.65" r="0.79" fill="#994ccd" opacity="0.51"/><circle cx="749.51" cy="78.31" r="1.41" fill="#994ccd" opacity="0.41"/><circle cx="836.57" cy="362.92" r="1.08" fill="#a94e9d" opacity="0.50"/><circle cx="721.78" cy="355.98" r="1.65" fill="#994ccd" opacity="0.42"/><circle cx="586.17" cy="280.95" r="0.92" fill="#994ccd" opacity="0.61"/><circle cx="831.33" cy="401.14" r="0.98" fill="#a94e9d" opacity="0.26"/><circle cx="960.93" cy="395.03" r="1.42" fill="#994ccd" opacity="0.41"/><circle cx="785.55" cy="169.68" r="1.41" fill="#994ccd" opacity="0.20"/><circle cx="937.18" cy="299.65" r="1.13" fill="#a94e9d" opacity="0.69"/><circle cx="1053.98" cy="211.16" r="1.07" fill="#994ccd" opacity="0.64"/><circle cx="1076.83" cy="234.49" r="0.89" fill="#994ccd" opacity="0.67"/><circle cx="577.72" cy="268.13" r="1.20" fill="#a94e9d" opacity="0.28"/><circle cx="773.52" cy="124.14" r="1.36" fill="#994ccd" opacity="0.52"/><circle cx="772.04" cy="57.10" r="1.08" fill="#994ccd" opacity="0.68"/><circle cx="895.54" cy="167.86" r="1.31" fill="#a94e9d" opacity="0.45"/><circle cx="620.49" cy="143.40" r="1.19" fill="#994ccd" opacity="0.34"/><circle cx="1050.61" cy="310.79" r="0.82" fill="#994ccd" opacity="0.39"/><circle cx="1039.64" cy="193.53" r="1.54" fill="#a94e9d" opacity="0.64"/><circle cx="910.69" cy="38.13" r="1.18" fill="#994ccd" opacity="0.75"/><circle cx="911.41" cy="54.43" r="0.91" fill="#994ccd" opacity="0.69"/><circle cx="874.35" cy="144.86" r="0.92" fill="#a94e9d" opacity="0.33"/><circle cx="926.51" cy="414.58" r="1.17" fill="#994ccd" opacity="0.67"/><circle cx="570.86" cy="187.27" r="0.73" fill="#994ccd" opacity="0.63"/><circle cx="863.12" cy="47.68" r="1.41" fill="#a94e9d" opacity="0.40"/><circle cx="598.81" cy="164.15" r="1.06" fill="#994ccd" opacity="0.58"/><circle cx="686.51" cy="219.40" r="1.27" fill="#994ccd" opacity="0.41"/><circle cx="824.54" cy="15.24" r="1.00" fill="#a94e9d" opacity="0.32"/><circle cx="965.09" cy="100.48" r="1.31" fill="#994ccd" opacity="0.33"/><circle cx="963.51" cy="213.05" r="0.94" fill="#994ccd" opacity="0.42"/><circle cx="1060.67" cy="312.37" r="0.69" fill="#a94e9d" opacity="0.40"/><circle cx="622.03" cy="340.04" r="0.74" fill="#994ccd" opacity="0.54"/><circle cx="679.68" cy="104.71" r="1.24" fill="#994ccd" opacity="0.53"/><circle cx="1039.19" cy="294.43" r="1.61" fill="#a94e9d" opacity="0.31"/><circle cx="629.68" cy="353.38" r="1.28" fill="#994ccd" opacity="0.74"/><circle cx="966.66" cy="98.73" r="0.70" fill="#994ccd" opacity="0.70"/><circle cx="856.46" cy="126.52" r="1.46" fill="#a94e9d" opacity="0.28"/><circle cx="660.80" cy="162.11" r="1.58" fill="#994ccd" opacity="0.54"/><circle cx="851.98" cy="432.31" r="1.62" fill="#994ccd" opacity="0.36"/><circle cx="933.64" cy="414.91" r="1.58" fill="#a94e9d" opacity="0.45"/><circle cx="1061.33" cy="283.67" r="0.67" fill="#994ccd" opacity="0.67"/><circle cx="737.67" cy="410.12" r="0.93" fill="#994ccd" opacity="0.52"/><circle cx="854.88" cy="95.95" r="0.75" fill="#a94e9d" opacity="0.56"/><circle cx="899.99" cy="228.20" r="0.64" fill="#994ccd" opacity="0.51"/><circle cx="933.49" cy="153.43" r="1.11" fill="#994ccd" opacity="0.47"/><circle cx="676.68" cy="373.04" r="0.93" fill="#a94e9d" opacity="0.78"/><circle cx="720.24" cy="393.30" r="1.17" fill="#994ccd" opacity="0.40"/><circle cx="842.22" cy="226.57" r="0.84" fill="#994ccd" opacity="0.70"/><circle cx="756.35" cy="233.61" r="1.58" fill="#a94e9d" opacity="0.47"/><circle cx="1067.81" cy="250.33" r="1.66" fill="#994ccd" opacity="0.48"/><circle cx="810.20" cy="61.51" r="0.61" fill="#994ccd" opacity="0.48"/><circle cx="970.97" cy="355.00" r="1.67" fill="#a94e9d" opacity="0.30"/><circle cx="977.55" cy="55.94" r="1.06" fill="#994ccd" opacity="0.31"/><circle cx="970.70" cy="164.64" r="1.57" fill="#994ccd" opacity="0.51"/><circle cx="833.53" cy="115.20" r="1.42" fill="#a94e9d" opacity="0.72"/><circle cx="999.06" cy="102.59" r="1.26" fill="#994ccd" opacity="0.33"/><circle cx="716.94" cy="279.03" r="1.49" fill="#994ccd" opacity="0.50"/><circle cx="733.95" cy="419.21" r="0.97" fill="#a94e9d" opacity="0.67"/><circle cx="919.51" cy="29.88" r="0.89" fill="#994ccd" opacity="0.61"/><circle cx="828.23" cy="17.26" r="0.99" fill="#994ccd" opacity="0.45"/><circle cx="895.49" cy="35.44" r="0.70" fill="#a94e9d" opacity="0.57"/><circle cx="733.28" cy="155.72" r="1.31" fill="#994ccd" opacity="0.80"/><circle cx="683.33" cy="202.55" r="1.37" fill="#994ccd" opacity="0.66"/><circle cx="632.23" cy="280.86" r="0.89" fill="#a94e9d" opacity="0.52"/><circle cx="1074.39" cy="176.47" r="0.87" fill="#994ccd" opacity="0.74"/><circle cx="650.95" cy="328.55" r="1.51" fill="#994ccd" opacity="0.33"/><circle cx="631.75" cy="352.62" r="1.38" fill="#a94e9d" opacity="0.39"/><circle cx="739.05" cy="387.16" r="1.12" fill="#994ccd" opacity="0.76"/><circle cx="866.56" cy="223.74" r="1.62" fill="#994ccd" opacity="0.38"/><circle cx="650.02" cy="380.31" r="1.69" fill="#a94e9d" opacity="0.22"/><circle cx="1023.69" cy="125.01" r="1.40" fill="#994ccd" opacity="0.66"/><circle cx="684.09" cy="66.58" r="1.03" fill="#994ccd" opacity="0.40"/><circle cx="871.06" cy="119.86" r="0.78" fill="#a94e9d" opacity="0.62"/><circle cx="960.37" cy="319.03" r="1.40" fill="#994ccd" opacity="0.24"/><circle cx="616.54" cy="348.49" r="1.48" fill="#994ccd" opacity="0.61"/><circle cx="733.66" cy="302.03" r="1.04" fill="#a94e9d" opacity="0.32"/><circle cx="729.12" cy="285.51" r="0.99" fill="#994ccd" opacity="0.31"/><circle cx="729.41" cy="42.31" r="1.24" fill="#994ccd" opacity="0.77"/><circle cx="686.80" cy="159.66" r="1.30" fill="#a94e9d" opacity="0.62"/><circle cx="829.76" cy="77.83" r="1.34" fill="#994ccd" opacity="0.50"/><circle cx="885.92" cy="407.28" r="1.57" fill="#994ccd" opacity="0.26"/><circle cx="845.60" cy="359.14" r="1.56" fill="#a94e9d" opacity="0.61"/><circle cx="696.34" cy="402.18" r="1.25" fill="#994ccd" opacity="0.29"/><circle cx="724.75" cy="174.93" r="0.85" fill="#994ccd" opacity="0.21"/><circle cx="630.13" cy="338.23" r="1.48" fill="#a94e9d" opacity="0.24"/><circle cx="1046.29" cy="116.24" r="0.64" fill="#994ccd" opacity="0.31"/><circle cx="904.96" cy="370.23" r="1.52" fill="#994ccd" opacity="0.72"/><circle cx="664.96" cy="366.02" r="1.57" fill="#a94e9d" opacity="0.57"/><circle cx="773.47" cy="411.30" r="1.59" fill="#994ccd" opacity="0.76"/><circle cx="804.46" cy="314.24" r="0.91" fill="#994ccd" opacity="0.22"/><circle cx="624.08" cy="124.26" r="1.25" fill="#a94e9d" opacity="0.53"/><circle cx="797.85" cy="109.54" r="0.63" fill="#994ccd" opacity="0.55"/><circle cx="1079.41" cy="191.08" r="1.22" fill="#994ccd" opacity="0.22"/><circle cx="870.01" cy="59.98" r="1.17" fill="#a94e9d" opacity="0.64"/><circle cx="873.83" cy="25.31" r="1.34" fill="#994ccd" opacity="0.47"/><circle cx="626.09" cy="277.02" r="1.29" fill="#994ccd" opacity="0.62"/><circle cx="708.65" cy="49.21" r="0.80" fill="#a94e9d" opacity="0.75"/><circle cx="594.64" cy="155.06" r="0.91" fill="#994ccd" opacity="0.40"/><circle cx="1080.19" cy="204.31" r="0.78" fill="#994ccd" opacity="0.72"/><circle cx="1079.45" cy="181.96" r="0.79" fill="#a94e9d" opacity="0.43"/><circle cx="622.24" cy="126.81" r="1.65" fill="#994ccd" opacity="0.34"/><circle cx="608.74" cy="310.71" r="0.63" fill="#994ccd" opacity="0.63"/><circle cx="881.39" cy="410.00" r="0.62" fill="#a94e9d" opacity="0.44"/><circle cx="981.61" cy="81.17" r="1.03" fill="#994ccd" opacity="0.68"/><circle cx="1000.48" cy="376.86" r="1.60" fill="#994ccd" opacity="0.51"/><circle cx="797.38" cy="204.39" r="0.90" fill="#a94e9d" opacity="0.32"/><circle cx="633.83" cy="185.35" r="1.31" fill="#994ccd" opacity="0.28"/><circle cx="940.84" cy="190.37" r="1.19" fill="#994ccd" opacity="0.75"/><circle cx="1056.93" cy="197.93" r="1.35" fill="#a94e9d" opacity="0.48"/><circle cx="874.92" cy="99.83" r="1.02" fill="#994ccd" opacity="0.62"/><circle cx="1070.82" cy="288.10" r="0.95" fill="#994ccd" opacity="0.68"/><circle cx="850.22" cy="16.65" r="0.77" fill="#a94e9d" opacity="0.30"/><circle cx="649.78" cy="335.37" r="1.27" fill="#994ccd" opacity="0.38"/><circle cx="825.26" cy="430.40" r="0.89" fill="#994ccd" opacity="0.71"/><circle cx="843.61" cy="204.39" r="1.35" fill="#a94e9d" opacity="0.61"/><circle cx="671.33" cy="82.57" r="1.00" fill="#994ccd" opacity="0.73"/><circle cx="1066.07" cy="157.10" r="0.85" fill="#994ccd" opacity="0.33"/><circle cx="847.58" cy="203.42" r="1.20" fill="#a94e9d" opacity="0.62"/><circle cx="940.59" cy="36.93" r="0.74" fill="#994ccd" opacity="0.29"/><circle cx="695.63" cy="375.67" r="1.60" fill="#994ccd" opacity="0.45"/><circle cx="801.14" cy="227.03" r="1.17" fill="#a94e9d" opacity="0.58"/><circle cx="959.47" cy="69.53" r="1.60" fill="#994ccd" opacity="0.51"/><circle cx="855.60" cy="30.60" r="1.14" fill="#994ccd" opacity="0.71"/><circle cx="687.44" cy="358.81" r="1.18" fill="#a94e9d" opacity="0.53"/><circle cx="664.97" cy="149.46" r="0.95" fill="#994ccd" opacity="0.57"/><circle cx="954.13" cy="406.33" r="1.35" fill="#994ccd" opacity="0.38"/><circle cx="713.46" cy="108.84" r="1.61" fill="#a94e9d" opacity="0.59"/><circle cx="940.40" cy="380.13" r="0.60" fill="#994ccd" opacity="0.30"/><circle cx="833.16" cy="426.48" r="0.63" fill="#994ccd" opacity="0.34"/><circle cx="896.66" cy="408.56" r="0.74" fill="#a94e9d" opacity="0.64"/><circle cx="973.55" cy="86.30" r="0.71" fill="#994ccd" opacity="0.54"/><circle cx="904.84" cy="178.48" r="1.28" fill="#994ccd" opacity="0.32"/><circle cx="670.63" cy="333.01" r="1.16" fill="#a94e9d" opacity="0.59"/><circle cx="606.90" cy="337.42" r="1.41" fill="#994ccd" opacity="0.71"/><circle cx="667.61" cy="72.68" r="1.42" fill="#994ccd" opacity="0.55"/><circle cx="636.16" cy="280.83" r="0.74" fill="#a94e9d" opacity="0.64"/><circle cx="710.71" cy="53.16" r="1.62" fill="#994ccd" opacity="0.74"/><circle cx="873.03" cy="56.03" r="1.44" fill="#994ccd" opacity="0.53"/><circle cx="980.51" cy="387.46" r="1.25" fill="#a94e9d" opacity="0.71"/><circle cx="647.77" cy="377.33" r="1.62" fill="#994ccd" opacity="0.39"/><circle cx="948.71" cy="278.42" r="1.14" fill="#994ccd" opacity="0.55"/><circle cx="893.68" cy="133.84" r="0.67" fill="#a94e9d" opacity="0.65"/><circle cx="1034.79" cy="265.84" r="1.26" fill="#994ccd" opacity="0.77"/><circle cx="832.74" cy="121.36" r="1.56" fill="#994ccd" opacity="0.74"/><circle cx="859.84" cy="25.62" r="1.07" fill="#a94e9d" opacity="0.65"/><circle cx="1036.58" cy="252.56" r="0.84" fill="#994ccd" opacity="0.31"/><circle cx="1070.98" cy="200.27" r="0.94" fill="#994ccd" opacity="0.29"/><circle cx="661.30" cy="318.79" r="1.18" fill="#a94e9d" opacity="0.44"/><circle cx="588.28" cy="189.59" r="1.44" fill="#994ccd" opacity="0.79"/><circle cx="726.56" cy="65.42" r="0.73" fill="#994ccd" opacity="0.73"/><circle cx="627.73" cy="113.17" r="1.07" fill="#a94e9d" opacity="0.77"/><circle cx="701.78" cy="51.77" r="1.09" fill="#994ccd" opacity="0.43"/><circle cx="732.25" cy="139.79" r="1.54" fill="#994ccd" opacity="0.68"/><circle cx="599.00" cy="234.13" r="0.92" fill="#a94e9d" opacity="0.38"/><circle cx="983.59" cy="58.96" r="1.55" fill="#994ccd" opacity="0.21"/><circle cx="928.92" cy="32.79" r="1.09" fill="#994ccd" opacity="0.58"/><circle cx="715.98" cy="58.35" r="1.10" fill="#a94e9d" opacity="0.62"/><circle cx="816.10" cy="280.48" r="1.23" fill="#994ccd" opacity="0.78"/><circle cx="697.05" cy="387.53" r="0.95" fill="#994ccd" opacity="0.33"/><circle cx="921.98" cy="67.79" r="1.18" fill="#a94e9d" opacity="0.72"/><circle cx="577.22" cy="182.64" r="1.00" fill="#994ccd" opacity="0.76"/><circle cx="1079.56" cy="267.12" r="0.69" fill="#994ccd" opacity="0.41"/><circle cx="1033.31" cy="342.20" r="1.45" fill="#a94e9d" opacity="0.73"/><circle cx="1012.69" cy="361.83" r="1.11" fill="#994ccd" opacity="0.23"/><circle cx="893.84" cy="130.20" r="1.06" fill="#994ccd" opacity="0.44"/><circle cx="673.08" cy="262.46" r="1.20" fill="#a94e9d" opacity="0.60"/><circle cx="697.90" cy="389.77" r="1.10" fill="#994ccd" opacity="0.32"/><circle cx="806.49" cy="366.85" r="1.59" fill="#994ccd" opacity="0.24"/><circle cx="720.16" cy="330.48" r="1.16" fill="#a94e9d" opacity="0.55"/><circle cx="891.42" cy="320.06" r="1.24" fill="#994ccd" opacity="0.20"/><circle cx="750.76" cy="70.17" r="1.60" fill="#994ccd" opacity="0.42"/><circle cx="631.01" cy="297.51" r="1.64" fill="#a94e9d" opacity="0.31"/><circle cx="745.76" cy="357.58" r="0.93" fill="#994ccd" opacity="0.41"/><circle cx="581.29" cy="168.50" r="0.91" fill="#994ccd" opacity="0.27"/><circle cx="890.45" cy="220.12" r="1.02" fill="#a94e9d" opacity="0.58"/><circle cx="825.21" cy="250.98" r="1.69" fill="#994ccd" opacity="0.43"/><circle cx="861.00" cy="20.11" r="1.67" fill="#994ccd" opacity="0.44"/><circle cx="745.46" cy="368.46" r="1.68" fill="#a94e9d" opacity="0.32"/><circle cx="989.58" cy="211.61" r="1.19" fill="#994ccd" opacity="0.64"/><circle cx="990.80" cy="385.98" r="1.20" fill="#994ccd" opacity="0.25"/><circle cx="665.11" cy="346.47" r="1.56" fill="#a94e9d" opacity="0.44"/><circle cx="634.96" cy="270.47" r="1.44" fill="#994ccd" opacity="0.27"/><circle cx="608.87" cy="147.56" r="0.73" fill="#994ccd" opacity="0.40"/><circle cx="1050.81" cy="319.76" r="0.85" fill="#a94e9d" opacity="0.51"/><circle cx="682.59" cy="180.35" r="1.08" fill="#994ccd" opacity="0.26"/><circle cx="782.34" cy="26.17" r="1.07" fill="#994ccd" opacity="0.76"/><circle cx="575.58" cy="213.33" r="0.86" fill="#a94e9d" opacity="0.73"/><circle cx="788.01" cy="24.22" r="1.03" fill="#994ccd" opacity="0.25"/><circle cx="1057.57" cy="289.87" r="1.23" fill="#994ccd" opacity="0.35"/><circle cx="816.20" cy="23.61" r="0.63" fill="#a94e9d" opacity="0.32"/><circle cx="928.43" cy="37.59" r="1.51" fill="#994ccd" opacity="0.26"/><circle cx="1018.79" cy="130.10" r="1.32" fill="#994ccd" opacity="0.67"/><circle cx="809.82" cy="429.77" r="0.68" fill="#a94e9d" opacity="0.73"/><circle cx="766.34" cy="428.91" r="1.62" fill="#994ccd" opacity="0.33"/><circle cx="633.80" cy="130.41" r="0.91" fill="#994ccd" opacity="0.63"/><circle cx="784.09" cy="72.49" r="0.71" fill="#a94e9d" opacity="0.57"/><circle cx="1051.34" cy="149.65" r="0.69" fill="#994ccd" opacity="0.27"/><circle cx="727.15" cy="75.30" r="1.15" fill="#994ccd" opacity="0.38"/><circle cx="632.09" cy="199.81" r="1.36" fill="#a94e9d" opacity="0.32"/><circle cx="1015.90" cy="298.78" r="1.51" fill="#994ccd" opacity="0.24"/><circle cx="566.25" cy="234.20" r="1.03" fill="#994ccd" opacity="0.69"/><circle cx="580.56" cy="294.70" r="0.88" fill="#a94e9d" opacity="0.26"/><circle cx="1046.35" cy="186.58" r="0.61" fill="#994ccd" opacity="0.30"/><circle cx="699.31" cy="127.33" r="1.14" fill="#994ccd" opacity="0.62"/><circle cx="1055.23" cy="234.34" r="0.67" fill="#a94e9d" opacity="0.47"/><circle cx="847.93" cy="275.48" r="1.19" fill="#994ccd" opacity="0.67"/><circle cx="994.46" cy="379.47" r="1.63" fill="#994ccd" opacity="0.57"/><circle cx="945.05" cy="147.78" r="0.75" fill="#a94e9d" opacity="0.62"/><circle cx="804.84" cy="407.66" r="0.74" fill="#994ccd" opacity="0.65"/><circle cx="591.44" cy="248.56" r="0.64" fill="#994ccd" opacity="0.27"/><circle cx="712.60" cy="151.61" r="0.96" fill="#a94e9d" opacity="0.42"/><circle cx="903.72" cy="127.30" r="0.63" fill="#994ccd" opacity="0.53"/><circle cx="853.56" cy="385.86" r="0.64" fill="#994ccd" opacity="0.53"/><circle cx="798.20" cy="98.55" r="1.64" fill="#a94e9d" opacity="0.39"/><circle cx="699.24" cy="128.16" r="0.73" fill="#994ccd" opacity="0.55"/><circle cx="770.51" cy="430.24" r="1.65" fill="#994ccd" opacity="0.79"/><circle cx="645.49" cy="373.40" r="1.07" fill="#a94e9d" opacity="0.44"/><circle cx="576.04" cy="254.79" r="1.39" fill="#994ccd" opacity="0.69"/><circle cx="728.30" cy="413.00" r="0.76" fill="#994ccd" opacity="0.53"/><circle cx="850.62" cy="94.07" r="0.97" fill="#a94e9d" opacity="0.52"/><circle cx="673.73" cy="121.13" r="1.58" fill="#994ccd" opacity="0.69"/><circle cx="835.62" cy="90.09" r="1.21" fill="#994ccd" opacity="0.49"/><circle cx="1007.94" cy="372.26" r="1.05" fill="#a94e9d" opacity="0.64"/><circle cx="883.45" cy="66.20" r="1.43" fill="#994ccd" opacity="0.57"/><circle cx="892.94" cy="426.30" r="1.41" fill="#994ccd" opacity="0.40"/><circle cx="988.34" cy="374.05" r="0.90" fill="#a94e9d" opacity="0.24"/><circle cx="700.40" cy="104.67" r="0.88" fill="#994ccd" opacity="0.27"/><circle cx="625.43" cy="359.07" r="0.65" fill="#994ccd" opacity="0.63"/><circle cx="960.30" cy="277.51" r="1.33" fill="#a94e9d" opacity="0.46"/><circle cx="641.04" cy="367.24" r="1.24" fill="#994ccd" opacity="0.56"/><circle cx="733.29" cy="404.12" r="0.88" fill="#994ccd" opacity="0.52"/><circle cx="910.76" cy="29.28" r="1.46" fill="#a94e9d" opacity="0.67"/><circle cx="800.33" cy="23.21" r="1.50" fill="#994ccd" opacity="0.41"/><circle cx="834.38" cy="299.76" r="1.63" fill="#994ccd" opacity="0.73"/><circle cx="592.41" cy="190.78" r="1.64" fill="#a94e9d" opacity="0.41"/><circle cx="1017.32" cy="125.76" r="1.68" fill="#994ccd" opacity="0.50"/><circle cx="743.50" cy="263.98" r="1.05" fill="#994ccd" opacity="0.23"/><circle cx="628.54" cy="349.19" r="1.44" fill="#a94e9d" opacity="0.79"/><circle cx="763.61" cy="409.82" r="1.22" fill="#994ccd" opacity="0.71"/><circle cx="1052.07" cy="326.79" r="1.40" fill="#994ccd" opacity="0.22"/><circle cx="668.71" cy="198.65" r="0.97" fill="#a94e9d" opacity="0.42"/><circle cx="756.35" cy="271.76" r="0.80" fill="#994ccd" opacity="0.74"/><circle cx="1054.66" cy="225.78" r="1.31" fill="#994ccd" opacity="0.75"/><circle cx="900.18" cy="358.75" r="1.43" fill="#a94e9d" opacity="0.43"/><circle cx="982.73" cy="58.06" r="1.69" fill="#994ccd" opacity="0.46"/><circle cx="678.16" cy="393.70" r="0.82" fill="#994ccd" opacity="0.68"/><circle cx="976.27" cy="166.62" r="1.11" fill="#a94e9d" opacity="0.21"/><circle cx="984.68" cy="95.10" r="1.09" fill="#994ccd" opacity="0.37"/><circle cx="1030.27" cy="96.33" r="0.78" fill="#994ccd" opacity="0.79"/><circle cx="826.54" cy="274.86" r="1.38" fill="#a94e9d" opacity="0.24"/><circle cx="829.68" cy="35.30" r="1.41" fill="#994ccd" opacity="0.24"/><circle cx="907.70" cy="27.44" r="1.20" fill="#994ccd" opacity="0.64"/><circle cx="972.13" cy="117.07" r="1.44" fill="#a94e9d" opacity="0.39"/><circle cx="933.02" cy="340.64" r="0.98" fill="#994ccd" opacity="0.71"/><circle cx="840.82" cy="122.96" r="0.78" fill="#994ccd" opacity="0.72"/><circle cx="640.48" cy="250.79" r="1.13" fill="#a94e9d" opacity="0.43"/><circle cx="1066.95" cy="299.36" r="1.55" fill="#994ccd" opacity="0.64"/><circle cx="701.96" cy="361.06" r="1.27" fill="#994ccd" opacity="0.50"/><circle cx="906.65" cy="313.00" r="1.55" fill="#a94e9d" opacity="0.79"/><circle cx="848.62" cy="207.25" r="0.74" fill="#994ccd" opacity="0.80"/><circle cx="669.04" cy="346.83" r="0.97" fill="#994ccd" opacity="0.70"/><circle cx="1037.97" cy="108.22" r="0.94" fill="#a94e9d" opacity="0.29"/><circle cx="852.89" cy="34.25" r="0.88" fill="#994ccd" opacity="0.56"/><circle cx="822.95" cy="338.35" r="1.07" fill="#994ccd" opacity="0.77"/><circle cx="994.14" cy="81.54" r="1.60" fill="#a94e9d" opacity="0.38"/><circle cx="837.88" cy="355.96" r="0.91" fill="#994ccd" opacity="0.56"/><circle cx="649.44" cy="342.61" r="1.07" fill="#994ccd" opacity="0.67"/><circle cx="985.02" cy="386.65" r="1.41" fill="#a94e9d" opacity="0.65"/><circle cx="608.14" cy="157.55" r="0.71" fill="#994ccd" opacity="0.23"/><circle cx="714.27" cy="170.45" r="0.96" fill="#994ccd" opacity="0.38"/><circle cx="967.22" cy="167.26" r="0.83" fill="#a94e9d" opacity="0.44"/><circle cx="665.39" cy="389.19" r="1.18" fill="#994ccd" opacity="0.47"/><circle cx="724.99" cy="359.96" r="1.26" fill="#994ccd" opacity="0.72"/><circle cx="1003.38" cy="138.64" r="1.39" fill="#a94e9d" opacity="0.69"/><circle cx="1037.19" cy="245.24" r="1.63" fill="#994ccd" opacity="0.51"/><circle cx="839.26" cy="223.69" r="1.47" fill="#994ccd" opacity="0.78"/><circle cx="794.55" cy="67.72" r="1.62" fill="#a94e9d" opacity="0.54"/><circle cx="706.75" cy="76.24" r="0.71" fill="#994ccd" opacity="0.80"/><circle cx="832.61" cy="211.00" r="1.04" fill="#994ccd" opacity="0.22"/><circle cx="1063.59" cy="238.75" r="1.36" fill="#a94e9d" opacity="0.69"/><circle cx="932.06" cy="79.63" r="0.84" fill="#994ccd" opacity="0.67"/><circle cx="595.19" cy="309.80" r="1.59" fill="#994ccd" opacity="0.42"/><circle cx="977.80" cy="330.30" r="1.53" fill="#a94e9d" opacity="0.78"/><circle cx="852.27" cy="143.27" r="0.99" fill="#994ccd" opacity="0.79"/><circle cx="1016.06" cy="217.68" r="1.22" fill="#994ccd" opacity="0.70"/><circle cx="756.98" cy="396.71" r="1.42" fill="#a94e9d" opacity="0.27"/><circle cx="690.63" cy="45.52" r="1.42" fill="#994ccd" opacity="0.57"/><circle cx="1072.00" cy="290.56" r="1.62" fill="#994ccd" opacity="0.61"/><text x="48" y="56" fill="#665e88" font-size="13" text-anchor="start" font-weight="400">PROJECT / OPEN SOURCE</text><text x="48" y="182" font-size="74.0" fill="url(#brand)" font-weight="700">mcpx</text><text x="50" y="242.0" fill="#1f1630" font-size="24" text-anchor="start" font-weight="400">Write one MCP server entry across your</text><text x="50" y="275.6" fill="#1f1630" font-size="24" text-anchor="start" font-weight="400">clients.</text><path d="M656.0 309.0L762.6 193.5L864.0 235.5L975.8 120.0" fill="none" stroke="#994ccd" stroke-width="1.5" marker-end="url(#arrow)"/><path d="M656.0 309.0L762.6 193.5L864.0 235.5L975.8 120.0" class="flow" fill="none" stroke="#756a98" stroke-width="2"/><circle cx="656.0" cy="309.0" r="12" fill="#756a98" opacity=".5" filter="url(#glow)"/><circle class="pulse" cx="656.0" cy="309.0" r="3" fill="#756a98"/><circle cx="762.6" cy="193.5" r="12" fill="#756a98" opacity=".5" filter="url(#glow)"/><circle class="pulse" cx="762.6" cy="193.5" r="3" fill="#756a98"/><circle cx="864.0" cy="235.5" r="12" fill="#756a98" opacity=".5" filter="url(#glow)"/><circle class="pulse" cx="864.0" cy="235.5" r="3" fill="#756a98"/><circle cx="975.8" cy="120.0" r="12" fill="#756a98" opacity=".5" filter="url(#glow)"/><circle class="pulse" cx="975.8" cy="120.0" r="3" fill="#756a98"/></svg>
